<mxfile host="app.diagrams.net" modified="2022-01-07T09:02:53.726Z" agent="5.0 (Windows NT 10.0; Win64; x64) AppleWebKit/537.36 (KHTML, like Gecko) Chrome/95.0.4638.69 Safari/537.36" etag="3TRDDzjg_MvmiSV-qF06" version="16.2.2" type="github">
  <diagram id="kpf0GCSd1FjbnYlvIcRo" name="第 1 页">
    <mxGraphModel dx="1483" dy="781" grid="1" gridSize="10" guides="1" tooltips="1" connect="1" arrows="1" fold="1" page="1" pageScale="1" pageWidth="1654" pageHeight="1169" math="0" shadow="0">
      <root>
        <mxCell id="0" />
        <mxCell id="1" parent="0" />
        <mxCell id="nS-9vAhoZRd438oHz8kV-29" value="" style="shape=table;startSize=0;container=1;collapsible=0;childLayout=tableLayout;fontSize=24;" vertex="1" parent="1">
          <mxGeometry x="1080" y="160" width="370" height="40" as="geometry" />
        </mxCell>
        <mxCell id="nS-9vAhoZRd438oHz8kV-30" value="" style="shape=tableRow;horizontal=0;startSize=0;swimlaneHead=0;swimlaneBody=0;top=0;left=0;bottom=0;right=0;collapsible=0;dropTarget=0;fillColor=none;points=[[0,0.5],[1,0.5]];portConstraint=eastwest;fontSize=24;" vertex="1" parent="nS-9vAhoZRd438oHz8kV-29">
          <mxGeometry width="370" height="40" as="geometry" />
        </mxCell>
        <mxCell id="nS-9vAhoZRd438oHz8kV-31" value="25565" style="shape=partialRectangle;html=1;whiteSpace=wrap;connectable=0;overflow=hidden;fillColor=none;top=0;left=0;bottom=0;right=0;pointerEvents=1;fontSize=24;" vertex="1" parent="nS-9vAhoZRd438oHz8kV-30">
          <mxGeometry width="80" height="40" as="geometry">
            <mxRectangle width="80" height="40" as="alternateBounds" />
          </mxGeometry>
        </mxCell>
        <mxCell id="nS-9vAhoZRd438oHz8kV-32" value="Minecraft Server" style="shape=partialRectangle;html=1;whiteSpace=wrap;connectable=0;overflow=hidden;fillColor=none;top=0;left=0;bottom=0;right=0;pointerEvents=1;fontSize=24;" vertex="1" parent="nS-9vAhoZRd438oHz8kV-30">
          <mxGeometry x="80" width="290" height="40" as="geometry">
            <mxRectangle width="290" height="40" as="alternateBounds" />
          </mxGeometry>
        </mxCell>
        <mxCell id="nS-9vAhoZRd438oHz8kV-33" value="" style="shape=table;startSize=0;container=1;collapsible=0;childLayout=tableLayout;fontSize=24;" vertex="1" parent="1">
          <mxGeometry x="1080" y="240" width="370" height="40" as="geometry" />
        </mxCell>
        <mxCell id="nS-9vAhoZRd438oHz8kV-34" value="" style="shape=tableRow;horizontal=0;startSize=0;swimlaneHead=0;swimlaneBody=0;top=0;left=0;bottom=0;right=0;collapsible=0;dropTarget=0;fillColor=none;points=[[0,0.5],[1,0.5]];portConstraint=eastwest;fontSize=24;" vertex="1" parent="nS-9vAhoZRd438oHz8kV-33">
          <mxGeometry width="370" height="40" as="geometry" />
        </mxCell>
        <mxCell id="nS-9vAhoZRd438oHz8kV-35" value="2203" style="shape=partialRectangle;html=1;whiteSpace=wrap;connectable=0;overflow=hidden;fillColor=none;top=0;left=0;bottom=0;right=0;pointerEvents=1;fontSize=24;" vertex="1" parent="nS-9vAhoZRd438oHz8kV-34">
          <mxGeometry width="80" height="40" as="geometry">
            <mxRectangle width="80" height="40" as="alternateBounds" />
          </mxGeometry>
        </mxCell>
        <mxCell id="nS-9vAhoZRd438oHz8kV-36" value="frp_ssh" style="shape=partialRectangle;html=1;whiteSpace=wrap;connectable=0;overflow=hidden;fillColor=none;top=0;left=0;bottom=0;right=0;pointerEvents=1;fontSize=24;" vertex="1" parent="nS-9vAhoZRd438oHz8kV-34">
          <mxGeometry x="80" width="290" height="40" as="geometry">
            <mxRectangle width="290" height="40" as="alternateBounds" />
          </mxGeometry>
        </mxCell>
        <mxCell id="nS-9vAhoZRd438oHz8kV-37" value="" style="shape=table;startSize=0;container=1;collapsible=0;childLayout=tableLayout;fontSize=24;" vertex="1" parent="1">
          <mxGeometry x="1080" y="320" width="370" height="40" as="geometry" />
        </mxCell>
        <mxCell id="nS-9vAhoZRd438oHz8kV-38" value="" style="shape=tableRow;horizontal=0;startSize=0;swimlaneHead=0;swimlaneBody=0;top=0;left=0;bottom=0;right=0;collapsible=0;dropTarget=0;fillColor=none;points=[[0,0.5],[1,0.5]];portConstraint=eastwest;fontSize=24;" vertex="1" parent="nS-9vAhoZRd438oHz8kV-37">
          <mxGeometry width="370" height="40" as="geometry" />
        </mxCell>
        <mxCell id="nS-9vAhoZRd438oHz8kV-39" value="8081" style="shape=partialRectangle;html=1;whiteSpace=wrap;connectable=0;overflow=hidden;fillColor=none;top=0;left=0;bottom=0;right=0;pointerEvents=1;fontSize=24;" vertex="1" parent="nS-9vAhoZRd438oHz8kV-38">
          <mxGeometry width="80" height="40" as="geometry">
            <mxRectangle width="80" height="40" as="alternateBounds" />
          </mxGeometry>
        </mxCell>
        <mxCell id="nS-9vAhoZRd438oHz8kV-40" value="drawio" style="shape=partialRectangle;html=1;whiteSpace=wrap;connectable=0;overflow=hidden;fillColor=none;top=0;left=0;bottom=0;right=0;pointerEvents=1;fontSize=24;" vertex="1" parent="nS-9vAhoZRd438oHz8kV-38">
          <mxGeometry x="80" width="290" height="40" as="geometry">
            <mxRectangle width="290" height="40" as="alternateBounds" />
          </mxGeometry>
        </mxCell>
        <mxCell id="nS-9vAhoZRd438oHz8kV-42" value="" style="shape=table;startSize=0;container=1;collapsible=0;childLayout=tableLayout;fontSize=24;" vertex="1" parent="1">
          <mxGeometry x="1080" y="400" width="370" height="40" as="geometry" />
        </mxCell>
        <mxCell id="nS-9vAhoZRd438oHz8kV-43" value="" style="shape=tableRow;horizontal=0;startSize=0;swimlaneHead=0;swimlaneBody=0;top=0;left=0;bottom=0;right=0;collapsible=0;dropTarget=0;fillColor=none;points=[[0,0.5],[1,0.5]];portConstraint=eastwest;fontSize=24;" vertex="1" parent="nS-9vAhoZRd438oHz8kV-42">
          <mxGeometry width="370" height="40" as="geometry" />
        </mxCell>
        <mxCell id="nS-9vAhoZRd438oHz8kV-44" value="8080" style="shape=partialRectangle;html=1;whiteSpace=wrap;connectable=0;overflow=hidden;fillColor=none;top=0;left=0;bottom=0;right=0;pointerEvents=1;fontSize=24;" vertex="1" parent="nS-9vAhoZRd438oHz8kV-43">
          <mxGeometry width="80" height="40" as="geometry">
            <mxRectangle width="80" height="40" as="alternateBounds" />
          </mxGeometry>
        </mxCell>
        <mxCell id="nS-9vAhoZRd438oHz8kV-45" value="nextcloud" style="shape=partialRectangle;html=1;whiteSpace=wrap;connectable=0;overflow=hidden;fillColor=none;top=0;left=0;bottom=0;right=0;pointerEvents=1;fontSize=24;" vertex="1" parent="nS-9vAhoZRd438oHz8kV-43">
          <mxGeometry x="80" width="290" height="40" as="geometry">
            <mxRectangle width="290" height="40" as="alternateBounds" />
          </mxGeometry>
        </mxCell>
        <mxCell id="nS-9vAhoZRd438oHz8kV-46" value="" style="shape=table;startSize=0;container=1;collapsible=0;childLayout=tableLayout;fontSize=24;" vertex="1" parent="1">
          <mxGeometry x="1080" y="480" width="370" height="40" as="geometry" />
        </mxCell>
        <mxCell id="nS-9vAhoZRd438oHz8kV-47" value="" style="shape=tableRow;horizontal=0;startSize=0;swimlaneHead=0;swimlaneBody=0;top=0;left=0;bottom=0;right=0;collapsible=0;dropTarget=0;fillColor=none;points=[[0,0.5],[1,0.5]];portConstraint=eastwest;fontSize=24;" vertex="1" parent="nS-9vAhoZRd438oHz8kV-46">
          <mxGeometry width="370" height="40" as="geometry" />
        </mxCell>
        <mxCell id="nS-9vAhoZRd438oHz8kV-48" value="" style="shape=partialRectangle;html=1;whiteSpace=wrap;connectable=0;overflow=hidden;fillColor=none;top=0;left=0;bottom=0;right=0;pointerEvents=1;fontSize=24;" vertex="1" parent="nS-9vAhoZRd438oHz8kV-47">
          <mxGeometry width="80" height="40" as="geometry">
            <mxRectangle width="80" height="40" as="alternateBounds" />
          </mxGeometry>
        </mxCell>
        <mxCell id="nS-9vAhoZRd438oHz8kV-49" value="Joplin" style="shape=partialRectangle;html=1;whiteSpace=wrap;connectable=0;overflow=hidden;fillColor=none;top=0;left=0;bottom=0;right=0;pointerEvents=1;fontSize=24;" vertex="1" parent="nS-9vAhoZRd438oHz8kV-47">
          <mxGeometry x="80" width="290" height="40" as="geometry">
            <mxRectangle width="290" height="40" as="alternateBounds" />
          </mxGeometry>
        </mxCell>
        <mxCell id="nS-9vAhoZRd438oHz8kV-50" value="" style="shape=table;startSize=0;container=1;collapsible=0;childLayout=tableLayout;fontSize=24;" vertex="1" parent="1">
          <mxGeometry x="1080" y="560" width="370" height="40" as="geometry" />
        </mxCell>
        <mxCell id="nS-9vAhoZRd438oHz8kV-51" value="" style="shape=tableRow;horizontal=0;startSize=0;swimlaneHead=0;swimlaneBody=0;top=0;left=0;bottom=0;right=0;collapsible=0;dropTarget=0;fillColor=none;points=[[0,0.5],[1,0.5]];portConstraint=eastwest;fontSize=24;" vertex="1" parent="nS-9vAhoZRd438oHz8kV-50">
          <mxGeometry width="370" height="40" as="geometry" />
        </mxCell>
        <mxCell id="nS-9vAhoZRd438oHz8kV-52" value="" style="shape=partialRectangle;html=1;whiteSpace=wrap;connectable=0;overflow=hidden;fillColor=none;top=0;left=0;bottom=0;right=0;pointerEvents=1;fontSize=24;" vertex="1" parent="nS-9vAhoZRd438oHz8kV-51">
          <mxGeometry width="80" height="40" as="geometry">
            <mxRectangle width="80" height="40" as="alternateBounds" />
          </mxGeometry>
        </mxCell>
        <mxCell id="nS-9vAhoZRd438oHz8kV-53" value="Emby" style="shape=partialRectangle;html=1;whiteSpace=wrap;connectable=0;overflow=hidden;fillColor=none;top=0;left=0;bottom=0;right=0;pointerEvents=1;fontSize=24;" vertex="1" parent="nS-9vAhoZRd438oHz8kV-51">
          <mxGeometry x="80" width="290" height="40" as="geometry">
            <mxRectangle width="290" height="40" as="alternateBounds" />
          </mxGeometry>
        </mxCell>
        <mxCell id="nS-9vAhoZRd438oHz8kV-54" value="" style="shape=table;startSize=0;container=1;collapsible=0;childLayout=tableLayout;fontSize=24;" vertex="1" parent="1">
          <mxGeometry x="1080" y="640" width="370" height="40" as="geometry" />
        </mxCell>
        <mxCell id="nS-9vAhoZRd438oHz8kV-55" value="" style="shape=tableRow;horizontal=0;startSize=0;swimlaneHead=0;swimlaneBody=0;top=0;left=0;bottom=0;right=0;collapsible=0;dropTarget=0;fillColor=none;points=[[0,0.5],[1,0.5]];portConstraint=eastwest;fontSize=24;" vertex="1" parent="nS-9vAhoZRd438oHz8kV-54">
          <mxGeometry width="370" height="40" as="geometry" />
        </mxCell>
        <mxCell id="nS-9vAhoZRd438oHz8kV-56" value="" style="shape=partialRectangle;html=1;whiteSpace=wrap;connectable=0;overflow=hidden;fillColor=none;top=0;left=0;bottom=0;right=0;pointerEvents=1;fontSize=24;" vertex="1" parent="nS-9vAhoZRd438oHz8kV-55">
          <mxGeometry width="80" height="40" as="geometry">
            <mxRectangle width="80" height="40" as="alternateBounds" />
          </mxGeometry>
        </mxCell>
        <mxCell id="nS-9vAhoZRd438oHz8kV-57" value="Lsky Pro" style="shape=partialRectangle;html=1;whiteSpace=wrap;connectable=0;overflow=hidden;fillColor=none;top=0;left=0;bottom=0;right=0;pointerEvents=1;fontSize=24;" vertex="1" parent="nS-9vAhoZRd438oHz8kV-55">
          <mxGeometry x="80" width="290" height="40" as="geometry">
            <mxRectangle width="290" height="40" as="alternateBounds" />
          </mxGeometry>
        </mxCell>
        <mxCell id="nS-9vAhoZRd438oHz8kV-58" value="" style="shape=table;startSize=0;container=1;collapsible=0;childLayout=tableLayout;fontSize=24;" vertex="1" parent="1">
          <mxGeometry x="1080" y="720" width="370" height="40" as="geometry" />
        </mxCell>
        <mxCell id="nS-9vAhoZRd438oHz8kV-59" value="" style="shape=tableRow;horizontal=0;startSize=0;swimlaneHead=0;swimlaneBody=0;top=0;left=0;bottom=0;right=0;collapsible=0;dropTarget=0;fillColor=none;points=[[0,0.5],[1,0.5]];portConstraint=eastwest;fontSize=24;" vertex="1" parent="nS-9vAhoZRd438oHz8kV-58">
          <mxGeometry width="370" height="40" as="geometry" />
        </mxCell>
        <mxCell id="nS-9vAhoZRd438oHz8kV-60" value="" style="shape=partialRectangle;html=1;whiteSpace=wrap;connectable=0;overflow=hidden;fillColor=none;top=0;left=0;bottom=0;right=0;pointerEvents=1;fontSize=24;" vertex="1" parent="nS-9vAhoZRd438oHz8kV-59">
          <mxGeometry width="80" height="40" as="geometry">
            <mxRectangle width="80" height="40" as="alternateBounds" />
          </mxGeometry>
        </mxCell>
        <mxCell id="nS-9vAhoZRd438oHz8kV-61" value="" style="shape=partialRectangle;html=1;whiteSpace=wrap;connectable=0;overflow=hidden;fillColor=none;top=0;left=0;bottom=0;right=0;pointerEvents=1;fontSize=24;" vertex="1" parent="nS-9vAhoZRd438oHz8kV-59">
          <mxGeometry x="80" width="290" height="40" as="geometry">
            <mxRectangle width="290" height="40" as="alternateBounds" />
          </mxGeometry>
        </mxCell>
        <mxCell id="nS-9vAhoZRd438oHz8kV-62" value="" style="shape=table;startSize=0;container=1;collapsible=0;childLayout=tableLayout;fontSize=24;" vertex="1" parent="1">
          <mxGeometry x="1080" y="800" width="370" height="40" as="geometry" />
        </mxCell>
        <mxCell id="nS-9vAhoZRd438oHz8kV-63" value="" style="shape=tableRow;horizontal=0;startSize=0;swimlaneHead=0;swimlaneBody=0;top=0;left=0;bottom=0;right=0;collapsible=0;dropTarget=0;fillColor=none;points=[[0,0.5],[1,0.5]];portConstraint=eastwest;fontSize=24;" vertex="1" parent="nS-9vAhoZRd438oHz8kV-62">
          <mxGeometry width="370" height="40" as="geometry" />
        </mxCell>
        <mxCell id="nS-9vAhoZRd438oHz8kV-64" value="" style="shape=partialRectangle;html=1;whiteSpace=wrap;connectable=0;overflow=hidden;fillColor=none;top=0;left=0;bottom=0;right=0;pointerEvents=1;fontSize=24;" vertex="1" parent="nS-9vAhoZRd438oHz8kV-63">
          <mxGeometry width="80" height="40" as="geometry">
            <mxRectangle width="80" height="40" as="alternateBounds" />
          </mxGeometry>
        </mxCell>
        <mxCell id="nS-9vAhoZRd438oHz8kV-65" value="" style="shape=partialRectangle;html=1;whiteSpace=wrap;connectable=0;overflow=hidden;fillColor=none;top=0;left=0;bottom=0;right=0;pointerEvents=1;fontSize=24;" vertex="1" parent="nS-9vAhoZRd438oHz8kV-63">
          <mxGeometry x="80" width="290" height="40" as="geometry">
            <mxRectangle width="290" height="40" as="alternateBounds" />
          </mxGeometry>
        </mxCell>
      </root>
    </mxGraphModel>
  </diagram>
</mxfile>
